<mxfile host="app.diagrams.net" agent="Mozilla/5.0 (Windows NT 10.0; Win64; x64) AppleWebKit/537.36 (KHTML, like Gecko) Chrome/135.0.0.0 Safari/537.36" version="26.2.10">
  <diagram name="Page-1" id="I5lDNnNTlDp_OpCWfZK5">
    <mxGraphModel dx="1190" dy="619" grid="1" gridSize="10" guides="1" tooltips="1" connect="1" arrows="1" fold="1" page="1" pageScale="1" pageWidth="850" pageHeight="1100" math="0" shadow="0">
      <root>
        <mxCell id="0" />
        <mxCell id="1" parent="0" />
        <mxCell id="V7M96jyGUnvnNdEThtoc-1" value="&lt;font style=&quot;font-size: 20px;&quot;&gt;&lt;b&gt;DATA FLOW DIAGRAM&lt;/b&gt;&lt;/font&gt;" style="whiteSpace=wrap;html=1;strokeColor=none;labelBackgroundColor=none;fillColor=#B2C9AB;fontColor=#46495D;" parent="1" vertex="1">
          <mxGeometry x="80" y="20" width="220" height="60" as="geometry" />
        </mxCell>
        <mxCell id="V7M96jyGUnvnNdEThtoc-2" value="" style="rounded=0;whiteSpace=wrap;html=1;dashed=1;labelBackgroundColor=none;" parent="1" vertex="1">
          <mxGeometry x="70" y="190" width="130" height="380" as="geometry" />
        </mxCell>
        <mxCell id="V7M96jyGUnvnNdEThtoc-3" value="&lt;font style=&quot;font-size: 16px;&quot;&gt;Sources&lt;/font&gt;" style="rounded=1;whiteSpace=wrap;html=1;labelBackgroundColor=none;" parent="1" vertex="1">
          <mxGeometry x="90" y="170" width="90" height="40" as="geometry" />
        </mxCell>
        <mxCell id="V7M96jyGUnvnNdEThtoc-5" value="" style="image;aspect=fixed;html=1;points=[];align=center;fontSize=12;image=img/lib/azure2/general/Folder_Blank.svg;labelBackgroundColor=none;fillColor=#B2C9AB;strokeColor=#788AA3;fontColor=#46495D;" parent="1" vertex="1">
          <mxGeometry x="100.5" y="282" width="69" height="56.00000000000001" as="geometry" />
        </mxCell>
        <mxCell id="V7M96jyGUnvnNdEThtoc-7" value="&lt;b&gt;CRM&lt;/b&gt;" style="text;html=1;align=center;verticalAlign=middle;whiteSpace=wrap;rounded=0;labelBackgroundColor=none;fontColor=#46495D;" parent="1" vertex="1">
          <mxGeometry x="100.5" y="338" width="60" height="30" as="geometry" />
        </mxCell>
        <mxCell id="V7M96jyGUnvnNdEThtoc-8" value="" style="image;aspect=fixed;html=1;points=[];align=center;fontSize=12;image=img/lib/azure2/general/Folder_Blank.svg;labelBackgroundColor=none;fillColor=#B2C9AB;strokeColor=#788AA3;fontColor=#46495D;" parent="1" vertex="1">
          <mxGeometry x="100.5" y="426" width="69" height="56.00000000000001" as="geometry" />
        </mxCell>
        <mxCell id="V7M96jyGUnvnNdEThtoc-9" value="&lt;b&gt;ERP&lt;/b&gt;" style="text;html=1;align=center;verticalAlign=middle;whiteSpace=wrap;rounded=0;labelBackgroundColor=none;fontColor=#46495D;" parent="1" vertex="1">
          <mxGeometry x="105" y="482" width="60" height="30" as="geometry" />
        </mxCell>
        <mxCell id="V7M96jyGUnvnNdEThtoc-11" value="" style="rounded=1;whiteSpace=wrap;html=1;fillColor=#ffe6cc;strokeColor=#d79b00;fillStyle=hatch;labelBackgroundColor=none;" parent="1" vertex="1">
          <mxGeometry x="250" y="200" width="140" height="370" as="geometry" />
        </mxCell>
        <mxCell id="V7M96jyGUnvnNdEThtoc-13" value="&lt;font style=&quot;font-size: 16px;&quot;&gt;&lt;b style=&quot;&quot;&gt;Bronze Layer&lt;/b&gt;&lt;/font&gt;" style="rounded=1;whiteSpace=wrap;html=1;fillColor=#ffe6cc;strokeColor=#d79b00;fillStyle=auto;labelBackgroundColor=none;" parent="1" vertex="1">
          <mxGeometry x="250" y="160" width="140" height="30" as="geometry" />
        </mxCell>
        <mxCell id="lpYCKS7UDZUtkaB7UYqF-9" style="edgeStyle=orthogonalEdgeStyle;rounded=0;orthogonalLoop=1;jettySize=auto;html=1;entryX=0;entryY=0.5;entryDx=0;entryDy=0;labelBackgroundColor=none;strokeColor=#788AA3;fontColor=default;" parent="1" source="V7M96jyGUnvnNdEThtoc-14" target="lpYCKS7UDZUtkaB7UYqF-3" edge="1">
          <mxGeometry relative="1" as="geometry" />
        </mxCell>
        <mxCell id="V7M96jyGUnvnNdEThtoc-14" value="&lt;font style=&quot;font-size: 14px;&quot;&gt;crm_sales_details&lt;/font&gt;" style="rounded=1;whiteSpace=wrap;html=1;fillColor=#ffe6cc;strokeColor=#d79b00;labelBackgroundColor=none;" parent="1" vertex="1">
          <mxGeometry x="255" y="260" width="130" height="30" as="geometry" />
        </mxCell>
        <mxCell id="lpYCKS7UDZUtkaB7UYqF-10" style="edgeStyle=orthogonalEdgeStyle;rounded=0;orthogonalLoop=1;jettySize=auto;html=1;entryX=0;entryY=0.5;entryDx=0;entryDy=0;labelBackgroundColor=none;strokeColor=#788AA3;fontColor=default;" parent="1" source="V7M96jyGUnvnNdEThtoc-15" target="lpYCKS7UDZUtkaB7UYqF-4" edge="1">
          <mxGeometry relative="1" as="geometry" />
        </mxCell>
        <mxCell id="V7M96jyGUnvnNdEThtoc-15" value="&lt;font style=&quot;font-size: 14px;&quot;&gt;crm_cust_info&lt;/font&gt;" style="rounded=1;whiteSpace=wrap;html=1;fillColor=#ffe6cc;strokeColor=#d79b00;labelBackgroundColor=none;" parent="1" vertex="1">
          <mxGeometry x="255" y="300" width="130" height="30" as="geometry" />
        </mxCell>
        <mxCell id="V7M96jyGUnvnNdEThtoc-16" value="&lt;font style=&quot;font-size: 14px;&quot;&gt;crm_prd_info&lt;/font&gt;" style="rounded=1;whiteSpace=wrap;html=1;fillColor=#ffe6cc;strokeColor=#d79b00;labelBackgroundColor=none;" parent="1" vertex="1">
          <mxGeometry x="255" y="342" width="130" height="26" as="geometry" />
        </mxCell>
        <mxCell id="lpYCKS7UDZUtkaB7UYqF-12" style="edgeStyle=orthogonalEdgeStyle;rounded=0;orthogonalLoop=1;jettySize=auto;html=1;entryX=0;entryY=0.5;entryDx=0;entryDy=0;labelBackgroundColor=none;strokeColor=#788AA3;fontColor=default;" parent="1" source="V7M96jyGUnvnNdEThtoc-37" target="lpYCKS7UDZUtkaB7UYqF-6" edge="1">
          <mxGeometry relative="1" as="geometry" />
        </mxCell>
        <mxCell id="V7M96jyGUnvnNdEThtoc-37" value="&lt;font style=&quot;font-size: 14px;&quot;&gt;erp_cust_az12&lt;/font&gt;" style="rounded=1;whiteSpace=wrap;html=1;fillColor=#ffe6cc;strokeColor=#d79b00;labelBackgroundColor=none;" parent="1" vertex="1">
          <mxGeometry x="254.5" y="400" width="130" height="30" as="geometry" />
        </mxCell>
        <mxCell id="lpYCKS7UDZUtkaB7UYqF-13" style="edgeStyle=orthogonalEdgeStyle;rounded=0;orthogonalLoop=1;jettySize=auto;html=1;entryX=0;entryY=0.5;entryDx=0;entryDy=0;labelBackgroundColor=none;strokeColor=#788AA3;fontColor=default;" parent="1" source="V7M96jyGUnvnNdEThtoc-38" target="lpYCKS7UDZUtkaB7UYqF-7" edge="1">
          <mxGeometry relative="1" as="geometry" />
        </mxCell>
        <mxCell id="V7M96jyGUnvnNdEThtoc-38" value="&lt;font style=&quot;font-size: 14px;&quot;&gt;erp_loc_a101&lt;/font&gt;" style="rounded=1;whiteSpace=wrap;html=1;fillColor=#ffe6cc;strokeColor=#d79b00;labelBackgroundColor=none;" parent="1" vertex="1">
          <mxGeometry x="254.5" y="440" width="130" height="30" as="geometry" />
        </mxCell>
        <mxCell id="lpYCKS7UDZUtkaB7UYqF-14" style="edgeStyle=orthogonalEdgeStyle;rounded=0;orthogonalLoop=1;jettySize=auto;html=1;entryX=0;entryY=0.5;entryDx=0;entryDy=0;labelBackgroundColor=none;strokeColor=#788AA3;fontColor=default;" parent="1" source="V7M96jyGUnvnNdEThtoc-39" target="lpYCKS7UDZUtkaB7UYqF-8" edge="1">
          <mxGeometry relative="1" as="geometry" />
        </mxCell>
        <mxCell id="V7M96jyGUnvnNdEThtoc-39" value="&lt;font style=&quot;font-size: 14px;&quot;&gt;erp_px_cat_g1v2&lt;/font&gt;" style="rounded=1;whiteSpace=wrap;html=1;fillColor=#ffe6cc;strokeColor=#d79b00;labelBackgroundColor=none;" parent="1" vertex="1">
          <mxGeometry x="254.5" y="482" width="130" height="26" as="geometry" />
        </mxCell>
        <mxCell id="V7M96jyGUnvnNdEThtoc-43" style="edgeStyle=orthogonalEdgeStyle;rounded=0;orthogonalLoop=1;jettySize=auto;html=1;entryX=-0.021;entryY=0.295;entryDx=0;entryDy=0;entryPerimeter=0;labelBackgroundColor=none;strokeColor=#788AA3;fontColor=default;" parent="1" source="V7M96jyGUnvnNdEThtoc-5" target="V7M96jyGUnvnNdEThtoc-11" edge="1">
          <mxGeometry relative="1" as="geometry">
            <mxPoint x="220" y="310" as="sourcePoint" />
          </mxGeometry>
        </mxCell>
        <mxCell id="V7M96jyGUnvnNdEThtoc-44" style="edgeStyle=orthogonalEdgeStyle;rounded=0;orthogonalLoop=1;jettySize=auto;html=1;entryX=-0.021;entryY=0.195;entryDx=0;entryDy=0;entryPerimeter=0;labelBackgroundColor=none;strokeColor=#788AA3;fontColor=default;" parent="1" source="V7M96jyGUnvnNdEThtoc-5" target="V7M96jyGUnvnNdEThtoc-11" edge="1">
          <mxGeometry relative="1" as="geometry" />
        </mxCell>
        <mxCell id="V7M96jyGUnvnNdEThtoc-45" style="edgeStyle=orthogonalEdgeStyle;rounded=0;orthogonalLoop=1;jettySize=auto;html=1;entryX=0;entryY=0.419;entryDx=0;entryDy=0;entryPerimeter=0;labelBackgroundColor=none;strokeColor=#788AA3;fontColor=default;" parent="1" source="V7M96jyGUnvnNdEThtoc-5" target="V7M96jyGUnvnNdEThtoc-11" edge="1">
          <mxGeometry relative="1" as="geometry" />
        </mxCell>
        <mxCell id="V7M96jyGUnvnNdEThtoc-51" style="edgeStyle=orthogonalEdgeStyle;rounded=0;orthogonalLoop=1;jettySize=auto;html=1;entryX=0.014;entryY=0.689;entryDx=0;entryDy=0;entryPerimeter=0;labelBackgroundColor=none;strokeColor=#788AA3;fontColor=default;" parent="1" source="V7M96jyGUnvnNdEThtoc-8" target="V7M96jyGUnvnNdEThtoc-11" edge="1">
          <mxGeometry relative="1" as="geometry" />
        </mxCell>
        <mxCell id="V7M96jyGUnvnNdEThtoc-52" style="edgeStyle=orthogonalEdgeStyle;rounded=0;orthogonalLoop=1;jettySize=auto;html=1;entryX=0.014;entryY=0.786;entryDx=0;entryDy=0;entryPerimeter=0;labelBackgroundColor=none;strokeColor=#788AA3;fontColor=default;" parent="1" source="V7M96jyGUnvnNdEThtoc-8" target="V7M96jyGUnvnNdEThtoc-11" edge="1">
          <mxGeometry relative="1" as="geometry" />
        </mxCell>
        <mxCell id="V7M96jyGUnvnNdEThtoc-53" style="edgeStyle=orthogonalEdgeStyle;rounded=0;orthogonalLoop=1;jettySize=auto;html=1;entryX=0.021;entryY=0.576;entryDx=0;entryDy=0;entryPerimeter=0;labelBackgroundColor=none;strokeColor=#788AA3;fontColor=default;" parent="1" source="V7M96jyGUnvnNdEThtoc-8" target="V7M96jyGUnvnNdEThtoc-11" edge="1">
          <mxGeometry relative="1" as="geometry" />
        </mxCell>
        <mxCell id="lpYCKS7UDZUtkaB7UYqF-1" value="" style="rounded=1;whiteSpace=wrap;html=1;fillColor=#f5f5f5;strokeColor=#666666;fillStyle=hatch;fontColor=#333333;labelBackgroundColor=none;" parent="1" vertex="1">
          <mxGeometry x="440" y="200" width="140" height="370" as="geometry" />
        </mxCell>
        <mxCell id="lpYCKS7UDZUtkaB7UYqF-2" value="&lt;font style=&quot;font-size: 16px;&quot;&gt;&lt;b style=&quot;&quot;&gt;Silver Layer&lt;/b&gt;&lt;/font&gt;" style="rounded=1;whiteSpace=wrap;html=1;fillColor=#f5f5f5;strokeColor=#666666;fillStyle=auto;fontColor=#333333;labelBackgroundColor=none;" parent="1" vertex="1">
          <mxGeometry x="440" y="160" width="140" height="30" as="geometry" />
        </mxCell>
        <mxCell id="S9Z2FHR7tM1Iwi8uFRTW-9" style="edgeStyle=orthogonalEdgeStyle;rounded=0;orthogonalLoop=1;jettySize=auto;html=1;entryX=0;entryY=0.5;entryDx=0;entryDy=0;labelBackgroundColor=none;strokeColor=#788AA3;fontColor=default;" edge="1" parent="1" source="lpYCKS7UDZUtkaB7UYqF-3" target="S9Z2FHR7tM1Iwi8uFRTW-3">
          <mxGeometry relative="1" as="geometry" />
        </mxCell>
        <mxCell id="lpYCKS7UDZUtkaB7UYqF-3" value="&lt;font style=&quot;font-size: 14px;&quot;&gt;crm_sales_details&lt;/font&gt;" style="rounded=1;whiteSpace=wrap;html=1;fillColor=#f5f5f5;strokeColor=#666666;fontColor=#333333;labelBackgroundColor=none;" parent="1" vertex="1">
          <mxGeometry x="445" y="260" width="130" height="30" as="geometry" />
        </mxCell>
        <mxCell id="lpYCKS7UDZUtkaB7UYqF-4" value="&lt;font style=&quot;font-size: 14px;&quot;&gt;crm_cust_info&lt;/font&gt;" style="rounded=1;whiteSpace=wrap;html=1;fillColor=#f5f5f5;strokeColor=#666666;fontColor=#333333;labelBackgroundColor=none;" parent="1" vertex="1">
          <mxGeometry x="445" y="300" width="130" height="30" as="geometry" />
        </mxCell>
        <mxCell id="lpYCKS7UDZUtkaB7UYqF-5" value="&lt;font style=&quot;font-size: 14px;&quot;&gt;crm_prd_info&lt;/font&gt;" style="rounded=1;whiteSpace=wrap;html=1;fillColor=#f5f5f5;strokeColor=#666666;fontColor=#333333;labelBackgroundColor=none;" parent="1" vertex="1">
          <mxGeometry x="445" y="342" width="130" height="26" as="geometry" />
        </mxCell>
        <mxCell id="lpYCKS7UDZUtkaB7UYqF-6" value="&lt;span style=&quot;color: rgb(0, 0, 0); font-size: 14px;&quot;&gt;erp_cust_az12&lt;/span&gt;" style="rounded=1;whiteSpace=wrap;html=1;fillColor=#f5f5f5;strokeColor=#666666;fontColor=#333333;labelBackgroundColor=none;" parent="1" vertex="1">
          <mxGeometry x="444.5" y="400" width="130" height="30" as="geometry" />
        </mxCell>
        <mxCell id="lpYCKS7UDZUtkaB7UYqF-7" value="&lt;span style=&quot;color: rgb(0, 0, 0); font-size: 14px;&quot;&gt;erp_loc_a101&lt;/span&gt;" style="rounded=1;whiteSpace=wrap;html=1;fillColor=#f5f5f5;strokeColor=#666666;fontColor=#333333;labelBackgroundColor=none;" parent="1" vertex="1">
          <mxGeometry x="444.5" y="440" width="130" height="30" as="geometry" />
        </mxCell>
        <mxCell id="lpYCKS7UDZUtkaB7UYqF-8" value="&lt;span style=&quot;color: rgb(0, 0, 0); font-size: 14px;&quot;&gt;erp_px_cat_g1v2&lt;/span&gt;" style="rounded=1;whiteSpace=wrap;html=1;fillColor=#f5f5f5;strokeColor=#666666;fontColor=#333333;labelBackgroundColor=none;" parent="1" vertex="1">
          <mxGeometry x="444.5" y="482" width="130" height="26" as="geometry" />
        </mxCell>
        <mxCell id="lpYCKS7UDZUtkaB7UYqF-11" style="edgeStyle=orthogonalEdgeStyle;rounded=0;orthogonalLoop=1;jettySize=auto;html=1;entryX=0.014;entryY=0.419;entryDx=0;entryDy=0;entryPerimeter=0;labelBackgroundColor=none;strokeColor=#788AA3;fontColor=default;" parent="1" source="V7M96jyGUnvnNdEThtoc-16" target="lpYCKS7UDZUtkaB7UYqF-1" edge="1">
          <mxGeometry relative="1" as="geometry" />
        </mxCell>
        <mxCell id="S9Z2FHR7tM1Iwi8uFRTW-1" value="" style="rounded=1;whiteSpace=wrap;html=1;fillColor=#fff2cc;strokeColor=#d6b656;fillStyle=hatch;labelBackgroundColor=none;" vertex="1" parent="1">
          <mxGeometry x="630" y="200" width="140" height="370" as="geometry" />
        </mxCell>
        <mxCell id="S9Z2FHR7tM1Iwi8uFRTW-2" value="&lt;font style=&quot;font-size: 16px;&quot;&gt;&lt;b style=&quot;&quot;&gt;Gold Layer&lt;/b&gt;&lt;/font&gt;" style="rounded=1;whiteSpace=wrap;html=1;fillColor=#fff2cc;strokeColor=#d6b656;fillStyle=auto;labelBackgroundColor=none;" vertex="1" parent="1">
          <mxGeometry x="630" y="160" width="140" height="30" as="geometry" />
        </mxCell>
        <mxCell id="S9Z2FHR7tM1Iwi8uFRTW-3" value="&lt;font style=&quot;font-size: 14px;&quot;&gt;fact_sales&lt;/font&gt;" style="rounded=1;whiteSpace=wrap;html=1;fillColor=#fff2cc;strokeColor=#d6b656;labelBackgroundColor=none;" vertex="1" parent="1">
          <mxGeometry x="635" y="260" width="130" height="30" as="geometry" />
        </mxCell>
        <mxCell id="S9Z2FHR7tM1Iwi8uFRTW-4" value="&lt;font style=&quot;font-size: 14px;&quot;&gt;dim_customers&lt;/font&gt;" style="rounded=1;whiteSpace=wrap;html=1;fillColor=#fff2cc;strokeColor=#d6b656;labelBackgroundColor=none;" vertex="1" parent="1">
          <mxGeometry x="635" y="338" width="130" height="30" as="geometry" />
        </mxCell>
        <mxCell id="S9Z2FHR7tM1Iwi8uFRTW-5" value="&lt;font style=&quot;font-size: 14px;&quot;&gt;dim_products&lt;/font&gt;" style="rounded=1;whiteSpace=wrap;html=1;fillColor=#fff2cc;strokeColor=#d6b656;labelBackgroundColor=none;" vertex="1" parent="1">
          <mxGeometry x="635" y="400" width="130" height="26" as="geometry" />
        </mxCell>
        <mxCell id="S9Z2FHR7tM1Iwi8uFRTW-11" value="" style="endArrow=classic;html=1;rounded=0;entryX=0;entryY=0.5;entryDx=0;entryDy=0;labelBackgroundColor=none;strokeColor=#788AA3;fontColor=default;jumpStyle=gap;" edge="1" parent="1" target="S9Z2FHR7tM1Iwi8uFRTW-4">
          <mxGeometry width="50" height="50" relative="1" as="geometry">
            <mxPoint x="580" y="320" as="sourcePoint" />
            <mxPoint x="630" y="270" as="targetPoint" />
          </mxGeometry>
        </mxCell>
        <mxCell id="S9Z2FHR7tM1Iwi8uFRTW-12" value="" style="endArrow=classic;html=1;rounded=0;entryX=0;entryY=0.5;entryDx=0;entryDy=0;labelBackgroundColor=none;strokeColor=#788AA3;fontColor=default;jumpStyle=gap;" edge="1" parent="1" target="S9Z2FHR7tM1Iwi8uFRTW-4">
          <mxGeometry width="50" height="50" relative="1" as="geometry">
            <mxPoint x="574.5" y="420" as="sourcePoint" />
            <mxPoint x="625.5" y="454" as="targetPoint" />
          </mxGeometry>
        </mxCell>
        <mxCell id="S9Z2FHR7tM1Iwi8uFRTW-13" value="" style="endArrow=classic;html=1;rounded=0;entryX=0;entryY=0.75;entryDx=0;entryDy=0;exitX=1;exitY=0.75;exitDx=0;exitDy=0;labelBackgroundColor=none;strokeColor=#788AA3;fontColor=default;jumpStyle=gap;" edge="1" parent="1" source="lpYCKS7UDZUtkaB7UYqF-7" target="S9Z2FHR7tM1Iwi8uFRTW-4">
          <mxGeometry width="50" height="50" relative="1" as="geometry">
            <mxPoint x="580" y="457" as="sourcePoint" />
            <mxPoint x="640.5" y="390" as="targetPoint" />
          </mxGeometry>
        </mxCell>
        <mxCell id="S9Z2FHR7tM1Iwi8uFRTW-14" value="" style="endArrow=classic;html=1;rounded=0;entryX=0;entryY=0.5;entryDx=0;entryDy=0;exitX=1;exitY=0.75;exitDx=0;exitDy=0;labelBackgroundColor=none;strokeColor=#788AA3;fontColor=default;jumpStyle=gap;" edge="1" parent="1" target="S9Z2FHR7tM1Iwi8uFRTW-5">
          <mxGeometry width="50" height="50" relative="1" as="geometry">
            <mxPoint x="575" y="492" as="sourcePoint" />
            <mxPoint x="635" y="390" as="targetPoint" />
          </mxGeometry>
        </mxCell>
        <mxCell id="S9Z2FHR7tM1Iwi8uFRTW-15" value="" style="endArrow=classic;html=1;rounded=0;entryX=0;entryY=0.5;entryDx=0;entryDy=0;exitX=1;exitY=0.75;exitDx=0;exitDy=0;labelBackgroundColor=none;strokeColor=#788AA3;fontColor=default;jumpStyle=gap;" edge="1" parent="1" target="S9Z2FHR7tM1Iwi8uFRTW-5">
          <mxGeometry width="50" height="50" relative="1" as="geometry">
            <mxPoint x="575" y="361" as="sourcePoint" />
            <mxPoint x="635" y="282" as="targetPoint" />
          </mxGeometry>
        </mxCell>
      </root>
    </mxGraphModel>
  </diagram>
</mxfile>
